<svg width="426" height="136" viewBox="0 0 426 136" fill="none" xmlns="http://www.w3.org/2000/svg">
<rect width="30" height="91" fill="#DA7D05"/>
<rect width="80" height="30" fill="#DA7D05"/>
<rect y="62" width="80" height="30" fill="#DA7D05"/>
<rect x="96" y="1" width="30" height="135" fill="#DA7D05"/>
<rect y="106" width="80" height="30" fill="#DA7D05"/>
<path d="M142.932 127H139.054L150.27 96.4545H154.088L165.304 127H161.426L152.299 101.287H152.06L142.932 127ZM144.364 115.068H159.995V118.349H144.364V115.068ZM190.108 96.4545H193.806V116.679C193.806 118.767 193.314 120.631 192.33 122.272C191.355 123.903 189.978 125.19 188.199 126.135C186.419 127.07 184.331 127.537 181.934 127.537C179.538 127.537 177.45 127.07 175.67 126.135C173.89 125.19 172.508 123.903 171.524 122.272C170.549 120.631 170.062 118.767 170.062 116.679V96.4545H173.761V116.381C173.761 117.872 174.089 119.2 174.745 120.363C175.402 121.516 176.336 122.426 177.549 123.092C178.772 123.749 180.234 124.077 181.934 124.077C183.635 124.077 185.096 123.749 186.319 123.092C187.542 122.426 188.477 121.516 189.123 120.363C189.779 119.2 190.108 117.872 190.108 116.381V96.4545ZM199.523 99.7358V96.4545H222.432V99.7358H212.827V127H209.128V99.7358H199.523ZM252.642 111.727C252.642 114.949 252.06 117.733 250.896 120.08C249.733 122.426 248.137 124.236 246.109 125.509C244.08 126.781 241.764 127.418 239.159 127.418C236.553 127.418 234.237 126.781 232.208 125.509C230.18 124.236 228.584 122.426 227.421 120.08C226.257 117.733 225.676 114.949 225.676 111.727C225.676 108.506 226.257 105.722 227.421 103.375C228.584 101.028 230.18 99.2188 232.208 97.946C234.237 96.6733 236.553 96.0369 239.159 96.0369C241.764 96.0369 244.08 96.6733 246.109 97.946C248.137 99.2188 249.733 101.028 250.896 103.375C252.06 105.722 252.642 108.506 252.642 111.727ZM249.062 111.727C249.062 109.082 248.619 106.85 247.735 105.031C246.86 103.211 245.671 101.834 244.17 100.899C242.678 99.9645 241.008 99.4972 239.159 99.4972C237.309 99.4972 235.634 99.9645 234.132 100.899C232.641 101.834 231.453 103.211 230.568 105.031C229.693 106.85 229.255 109.082 229.255 111.727C229.255 114.372 229.693 116.604 230.568 118.424C231.453 120.244 232.641 121.621 234.132 122.555C235.634 123.49 237.309 123.957 239.159 123.957C241.008 123.957 242.678 123.49 244.17 122.555C245.671 121.621 246.86 120.244 247.735 118.424C248.619 116.604 249.062 114.372 249.062 111.727ZM258.861 96.4545H263.276L273.656 121.81H274.014L284.395 96.4545H288.81V127H285.35V103.793H285.051L275.506 127H272.165L262.619 103.793H262.321V127H258.861V96.4545ZM297.479 127H293.601L304.817 96.4545H308.635L319.851 127H315.973L306.846 101.287H306.607L297.479 127ZM298.911 115.068H314.542V118.349H298.911V115.068ZM319.37 99.7358V96.4545H342.279V99.7358H332.674V127H328.975V99.7358H319.37ZM351.687 96.4545V127H347.988V96.4545H351.687ZM384.876 111.727C384.876 114.949 384.294 117.733 383.131 120.08C381.968 122.426 380.372 124.236 378.343 125.509C376.315 126.781 373.998 127.418 371.393 127.418C368.788 127.418 366.471 126.781 364.443 125.509C362.414 124.236 360.818 122.426 359.655 120.08C358.492 117.733 357.91 114.949 357.91 111.727C357.91 108.506 358.492 105.722 359.655 103.375C360.818 101.028 362.414 99.2188 364.443 97.946C366.471 96.6733 368.788 96.0369 371.393 96.0369C373.998 96.0369 376.315 96.6733 378.343 97.946C380.372 99.2188 381.968 101.028 383.131 103.375C384.294 105.722 384.876 108.506 384.876 111.727ZM381.296 111.727C381.296 109.082 380.854 106.85 379.969 105.031C379.094 103.211 377.906 101.834 376.404 100.899C374.913 99.9645 373.242 99.4972 371.393 99.4972C369.544 99.4972 367.868 99.9645 366.367 100.899C364.875 101.834 363.687 103.211 362.802 105.031C361.927 106.85 361.49 109.082 361.49 111.727C361.49 114.372 361.927 116.604 362.802 118.424C363.687 120.244 364.875 121.621 366.367 122.555C367.868 123.49 369.544 123.957 371.393 123.957C373.242 123.957 374.913 123.49 376.404 122.555C377.906 121.621 379.094 120.244 379.969 118.424C380.854 116.604 381.296 114.372 381.296 111.727ZM415.317 96.4545V127H411.737L395.093 103.017H394.794V127H391.095V96.4545H394.675L411.379 120.497H411.678V96.4545H415.317Z" fill="white"/>
<path d="M142.153 87V19.3636H182.973V26.6293H150.344V49.483H180.859V56.7486H150.344V79.7344H183.501V87H142.153ZM197.735 87V19.3636H205.926V79.7344H237.366V87H197.735ZM250.048 87V19.3636H273.694C278.406 19.3636 282.292 20.1783 285.352 21.8075C288.412 23.4148 290.691 25.5834 292.188 28.3136C293.686 31.0217 294.434 34.027 294.434 37.3295C294.434 40.2358 293.917 42.6357 292.882 44.5291C291.869 46.4226 290.526 47.9197 288.853 49.0206C287.202 50.1214 285.407 50.9361 283.47 51.4645V52.125C285.539 52.2571 287.62 52.9837 289.711 54.3047C291.803 55.6257 293.553 57.5192 294.963 59.9851C296.372 62.451 297.076 65.4673 297.076 69.0341C297.076 72.4247 296.306 75.4741 294.764 78.1822C293.223 80.8903 290.79 83.0369 287.466 84.6222C284.141 86.2074 279.815 87 274.487 87H250.048ZM258.238 79.7344H274.487C279.837 79.7344 283.635 78.6996 285.881 76.63C288.148 74.5384 289.282 72.0064 289.282 69.0341C289.282 66.7443 288.699 64.6307 287.532 62.6932C286.365 60.7337 284.703 59.1705 282.545 58.0036C280.387 56.8146 277.833 56.2202 274.883 56.2202H258.238V79.7344ZM258.238 49.0866H273.43C275.896 49.0866 278.119 48.6023 280.101 47.6335C282.105 46.6648 283.69 45.2997 284.857 43.5384C286.046 41.777 286.64 39.7074 286.64 37.3295C286.64 34.3572 285.605 31.8363 283.536 29.7667C281.466 27.6751 278.186 26.6293 273.694 26.6293H258.238V49.0866ZM367.602 53.1818C367.602 60.3153 366.314 66.4801 363.738 71.6761C361.162 76.8722 357.629 80.8793 353.137 83.6974C348.646 86.5156 343.516 87.9247 337.747 87.9247C331.979 87.9247 326.849 86.5156 322.357 83.6974C317.866 80.8793 314.332 76.8722 311.756 71.6761C309.18 66.4801 307.892 60.3153 307.892 53.1818C307.892 46.0483 309.18 39.8835 311.756 34.6875C314.332 29.4915 317.866 25.4844 322.357 22.6662C326.849 19.848 331.979 18.4389 337.747 18.4389C343.516 18.4389 348.646 19.848 353.137 22.6662C357.629 25.4844 361.162 29.4915 363.738 34.6875C366.314 39.8835 367.602 46.0483 367.602 53.1818ZM359.676 53.1818C359.676 47.3253 358.696 42.3825 356.737 38.3533C354.799 34.3242 352.168 31.2749 348.844 29.2053C345.541 27.1357 341.842 26.1009 337.747 26.1009C333.652 26.1009 329.942 27.1357 326.618 29.2053C323.315 31.2749 320.684 34.3242 318.724 38.3533C316.787 42.3825 315.818 47.3253 315.818 53.1818C315.818 59.0384 316.787 63.9812 318.724 68.0103C320.684 72.0394 323.315 75.0888 326.618 77.1584C329.942 79.228 333.652 80.2628 337.747 80.2628C341.842 80.2628 345.541 79.228 348.844 77.1584C352.168 75.0888 354.799 72.0394 356.737 68.0103C358.696 63.9812 359.676 59.0384 359.676 53.1818ZM374.86 26.6293V19.3636H425.587V26.6293H404.318V87H396.128V26.6293H374.86Z" fill="white"/>
</svg>
