<svg width="268" height="102" viewBox="0 0 268 102" fill="none" xmlns="http://www.w3.org/2000/svg">
<rect x="83" y="87" width="185" height="15" fill="#DA7D05"/>
<rect y="1" width="23" height="62" fill="#DA7D05"/>
<rect y="1" width="57" height="23" fill="#DA7D05"/>
<rect y="40" width="57" height="23" fill="#DA7D05"/>
<rect x="71" y="1" width="23" height="101" fill="#DA7D05"/>
<rect y="79" width="57" height="23" fill="#DA7D05"/>
<path d="M105.415 85V1.36363H115.053V32.2372H115.869C116.577 31.1482 117.557 29.7597 118.81 28.0717C120.089 26.3565 121.914 24.8319 124.282 23.4979C126.678 22.1366 129.918 21.456 134.002 21.456C139.283 21.456 143.939 22.7764 147.968 25.4173C151.998 28.0581 155.142 31.8016 157.402 36.6477C159.662 41.4938 160.791 47.2112 160.791 53.7997C160.791 60.4427 159.662 66.2009 157.402 71.0742C155.142 75.9203 152.011 79.6774 148.009 82.3455C144.007 84.9864 139.392 86.3068 134.165 86.3068C130.136 86.3068 126.909 85.6398 124.486 84.3058C122.063 82.9445 120.198 81.4062 118.892 79.6911C117.585 77.9486 116.577 76.5057 115.869 75.3622H114.726V85H105.415ZM114.889 53.6364C114.889 58.3736 115.584 62.5527 116.972 66.1737C118.361 69.7674 120.389 72.5852 123.057 74.6271C125.725 76.6418 128.992 77.6491 132.858 77.6491C136.887 77.6491 140.25 76.5874 142.945 74.4638C145.668 72.313 147.71 69.4271 149.071 65.8061C150.459 62.1579 151.154 58.1013 151.154 53.6364C151.154 49.2259 150.473 45.2509 149.112 41.7116C147.778 38.1451 145.749 35.3273 143.027 33.2582C140.331 31.1618 136.942 30.1136 132.858 30.1136C128.938 30.1136 125.643 31.1074 122.975 33.0948C120.307 35.055 118.293 37.8048 116.931 41.3441C115.57 44.8562 114.889 48.9536 114.889 53.6364Z" fill="#418ACA"/>
<path d="M192 86.1435C185.847 86.1435 180.606 84.4691 176.277 81.1204C171.949 77.7444 168.641 72.8575 166.354 66.4595C164.067 60.0343 162.923 52.2751 162.923 43.1818C162.923 34.143 164.067 26.4246 166.354 20.0266C168.668 13.6014 171.989 8.70087 176.318 5.32492C180.674 1.92175 185.902 0.220167 192 0.220167C198.098 0.220167 203.312 1.92175 207.641 5.32492C211.997 8.70087 215.319 13.6014 217.605 20.0266C219.92 26.4246 221.077 34.143 221.077 43.1818C221.077 52.2751 219.933 60.0343 217.646 66.4595C215.359 72.8575 212.051 77.7444 207.723 81.1204C203.394 84.4691 198.153 86.1435 192 86.1435ZM192 77.1591C198.098 77.1591 202.836 74.2187 206.212 68.3381C209.588 62.4574 211.276 54.072 211.276 43.1818C211.276 35.9399 210.5 29.7733 208.948 24.6822C207.423 19.591 205.218 15.7114 202.332 13.0433C199.473 10.3752 196.029 9.04119 192 9.04119C185.956 9.04119 181.232 12.0224 177.829 17.9847C174.426 23.9199 172.724 32.3189 172.724 43.1818C172.724 50.4238 173.487 56.5767 175.011 61.6406C176.536 66.7045 178.728 70.5569 181.586 73.1978C184.472 75.8387 187.943 77.1591 192 77.1591Z" fill="#DA7D05"/>
<path d="M262.212 22.2727V30.4403H229.705V22.2727H262.212ZM239.18 7.24432H248.817V67.0312C248.817 69.7538 249.212 71.7957 250.002 73.157C250.818 74.491 251.853 75.3894 253.105 75.8523C254.385 76.2879 255.733 76.5057 257.148 76.5057C258.21 76.5057 259.081 76.4512 259.762 76.3423C260.443 76.2062 260.987 76.0973 261.395 76.0156L263.356 84.6733C262.702 84.9183 261.79 85.1634 260.619 85.4084C259.449 85.6806 257.965 85.8168 256.168 85.8168C253.446 85.8168 250.778 85.2314 248.164 84.0607C245.577 82.89 243.427 81.1068 241.711 78.7109C240.023 76.3151 239.18 73.2931 239.18 69.6449V7.24432Z" fill="#418ACA"/>
<path d="M165.693 22H268V31H163.703L164.5 26.5L165.693 22Z" fill="#418ACA"/>
</svg>
