<svg width="396" height="112" viewBox="0 0 396 112" fill="none" xmlns="http://www.w3.org/2000/svg">
<rect y="7" width="23" height="62" fill="#FF6F00"/>
<rect y="7" width="57" height="23" fill="#FF6F00"/>
<rect y="46" width="57" height="23" fill="#FF6F00"/>
<rect x="71" y="7" width="23" height="101" fill="#FF6F00"/>
<rect y="85" width="57" height="23" fill="#FF6F00"/>
<path d="M153.424 8.34V19.514H120.506V51.224H148.894V62.398H120.506V96.826H155.538L154.481 108H102.839V8.34H153.424ZM186.867 0.487998V95.618C186.867 100.551 188.427 103.873 191.548 105.584C190.742 107.094 189.383 108.252 187.471 109.057C185.659 109.862 183.746 110.265 181.733 110.265C177.907 110.265 175.038 109.158 173.126 106.943C171.213 104.728 170.257 101.608 170.257 97.581V2.29999L186.867 0.487998ZM225.214 17.551C225.214 28.5237 224.71 36.577 223.704 41.711C225.616 37.483 228.485 34.161 232.311 31.745C236.136 29.2283 240.364 27.97 244.995 27.97C254.558 27.97 261.504 31.7953 265.833 39.446C270.161 47.0967 272.326 56.7607 272.326 68.438C272.326 81.3233 269.557 91.692 264.021 99.544C258.484 107.396 249.978 111.322 238.502 111.322C233.569 111.322 228.334 110.668 222.798 109.359C217.362 108.151 212.63 106.44 208.604 104.225V2.29999L225.214 0.487998V17.551ZM225.214 97.732C229.643 100.752 234.324 102.262 239.257 102.262C245.397 102.262 249.424 99.1413 251.337 92.9C253.249 86.6587 254.206 78.7563 254.206 69.193C254.206 60.6363 253.249 53.5897 251.337 48.053C249.525 42.4157 245.75 39.597 240.012 39.597C234.173 39.597 230.247 42.3653 228.234 47.902C226.22 53.338 225.214 60.284 225.214 68.74V97.732ZM315.121 27.97C326.396 27.97 334.751 31.6443 340.187 38.993C345.623 46.241 348.341 56.056 348.341 68.438C348.341 81.6253 345.724 92.0947 340.489 99.846C335.255 107.497 326.799 111.322 315.121 111.322C303.645 111.322 295.24 107.648 289.904 100.299C284.67 92.9503 282.052 82.8333 282.052 69.948C282.052 57.4653 284.77 47.3483 290.206 39.597C295.642 31.8457 303.947 27.97 315.121 27.97ZM315.121 102.262C321.363 102.262 325.44 99.1917 327.352 93.051C329.265 86.9103 330.221 78.9577 330.221 69.193C330.221 60.2337 329.164 52.6333 327.05 46.392C325.037 40.1507 321.061 37.03 315.121 37.03C305.155 37.03 300.172 47.751 300.172 69.193C300.172 78.9577 301.078 86.9103 302.89 93.051C304.803 99.1917 308.88 102.262 315.121 102.262ZM353.918 37.785L353.767 33.255C358.297 31.443 362.575 29.027 366.602 26.007C370.729 22.987 374.202 19.665 377.021 16.041H381.702V30.99H395.594V37.785H381.4V92.749C381.4 95.769 381.953 98.034 383.061 99.544C384.168 101.054 385.93 102.01 388.346 102.413C387.842 104.728 386.483 106.591 384.269 108C382.155 109.51 379.688 110.265 376.87 110.265C368.716 110.265 364.639 105.634 364.639 96.373V37.785H353.918Z" fill="#418ACA"/>
</svg>
